<?xml version="1.0" encoding="utf-8"?>
<!-- Generator: Adobe Illustrator 25.4.1, SVG Export Plug-In . SVG Version: 6.00 Build 0)  -->
<svg version="1.1" id="Capa_1" xmlns="http://www.w3.org/2000/svg" xmlns:xlink="http://www.w3.org/1999/xlink" x="0px" y="0px"
	 viewBox="0 0 24 24" style="enable-background:new 0 0 24 24;" xml:space="preserve">
<style type="text/css">
	.st0{fill:none;}
	.st1{fill:#07E089;}
</style>
<rect class="st0" width="24" height="24"/>
<path class="st1" d="M20.9,4.8L10.1,15.6l-4-4l1.3-1.3l2.6,2.6l9.5-9.5L20.9,4.8z M11.4,18.8c-4.2,0-7.6-3.4-7.6-7.6
	s3.4-7.6,7.6-7.6c1.5,0,2.8,0.5,4.1,1.1l1.4-1.4c-1.6-0.9-3.5-1.6-5.5-1.6C6.3,1.8,2,6,2,11.2s4.3,9.5,9.5,9.5
	c1.6,0,3.2-0.4,4.5-1.1l-1.4-1.4C13.6,18.5,12.6,18.8,11.4,18.8z M18.1,14h-2.8v1.9h2.8v2.8H20v-2.8h2.8V14H20v-2.8h-1.9V14z"/>
</svg>
