<?xml version="1.0" encoding="utf-8"?>
<!-- Generator: Adobe Illustrator 25.4.1, SVG Export Plug-In . SVG Version: 6.00 Build 0)  -->
<svg version="1.1" id="Capa_1" xmlns="http://www.w3.org/2000/svg" xmlns:xlink="http://www.w3.org/1999/xlink" x="0px" y="0px"
	 viewBox="0 0 24 24" style="enable-background:new 0 0 24 24;" xml:space="preserve">
<style type="text/css">
	.st0{fill:none;}
	.st1{fill:#1C2869;}
</style>
<path class="st0" d="M0,0h24v24H0V0z"/>
<path class="st1" d="M13.3,7c-0.6,0-1,0.4-1,1v3h-3c-0.6,0-1,0.4-1,1s0.4,1,1,1h3v3c0,0.5,0.4,1,1,1s1-0.5,1-1v-3h3c0.5,0,1-0.4,1-1
	s-0.5-1-1-1h-3V8C14.3,7.4,13.9,7,13.3,7z M13.3,2c-5.5,0-10,4.5-10,10s4.5,10,10,10s10-4.5,10-10S18.8,2,13.3,2z M13.3,20
	c-4.4,0-8-3.6-8-8s3.6-8,8-8s8,3.6,8,8S17.7,20,13.3,20z"/>
</svg>
