<?xml version="1.0" encoding="utf-8"?>
<!-- Generator: Adobe Illustrator 25.4.1, SVG Export Plug-In . SVG Version: 6.00 Build 0)  -->
<svg version="1.1" id="Capa_1" xmlns="http://www.w3.org/2000/svg" xmlns:xlink="http://www.w3.org/1999/xlink" x="0px" y="0px"
	 viewBox="0 0 24 24" style="enable-background:new 0 0 24 24;" xml:space="preserve">
<style type="text/css">
	.st0{fill:none;}
	.st1{fill:#696CFF;}
</style>
<g>
	<rect class="st0" width="24" height="24"/>
</g>
<g>
	<path class="st1" d="M18.1,1.4l-4,4C14.1,5.4,14,5.6,14,5.7v8.2c0,0.4,0.5,0.7,0.8,0.4l4-3.6c0.1-0.1,0.2-0.2,0.2-0.4V1.7
		C19,1.3,18.5,1,18.1,1.4z M22.5,5.2C22,5,21.5,4.8,21,4.6v12c-1.1-0.4-2.3-0.6-3.5-0.6c-1.9,0-3.8,0.5-5.5,1.6V5.5
		C10.4,4.6,8.5,4,6.5,4C4.7,4,3,4.4,1.5,5.2C1.2,5.4,1,5.7,1,6.1v12.1c0,0.8,0.8,1.2,1.5,0.9c1.2-0.6,2.6-1,4-1c2.1,0,4,0.8,5.5,2
		c1.5-1.2,3.4-2,5.5-2c1.5,0,2.8,0.4,4,1c0.7,0.4,1.5-0.1,1.5-0.9V6.1C23,5.7,22.8,5.4,22.5,5.2z"/>
</g>
</svg>
