<?xml version="1.0" encoding="utf-8"?>
<!-- Generator: Adobe Illustrator 25.4.1, SVG Export Plug-In . SVG Version: 6.00 Build 0)  -->
<svg version="1.1" id="Capa_1" xmlns="http://www.w3.org/2000/svg" xmlns:xlink="http://www.w3.org/1999/xlink" x="0px" y="0px"
	 viewBox="0 0 24 24" style="enable-background:new 0 0 24 24;" xml:space="preserve">
<style type="text/css">
	.st0{fill:none;}
	.st1{fill:#696CFF;}
</style>
<path class="st0" d="M0,0h24v24H0V0z"/>
<path class="st1" d="M16,11.5c-0.3-0.3-0.8-0.3-1.1,0l-4.4,4.3L9,14.3c-0.3-0.3-0.8-0.3-1.1,0c-0.3,0.3-0.3,0.8,0,1.1l1.9,1.9
	c0.4,0.4,1,0.4,1.4,0l4.7-4.7C16.3,12.3,16.3,11.8,16,11.5z M19,4h-1V3c0-0.5-0.5-1-1-1s-1,0.5-1,1v1H8V3c0-0.5-0.4-1-1-1S6,2.5,6,3
	v1H5C3.9,4,3,4.9,3,6l0,14c0,1.1,0.9,2,2,2h14c1.1,0,2-0.9,2-2V6C21,4.9,20.1,4,19,4z M18,20H6c-0.6,0-1-0.5-1-1V9h14v10
	C19,19.5,18.5,20,18,20z"/>
</svg>
