<?xml version="1.0" encoding="utf-8"?>
<!-- Generator: Adobe Illustrator 25.4.1, SVG Export Plug-In . SVG Version: 6.00 Build 0)  -->
<svg version="1.1" id="Capa_1" xmlns="http://www.w3.org/2000/svg" xmlns:xlink="http://www.w3.org/1999/xlink" x="0px" y="0px"
	 viewBox="0 0 24 24" style="enable-background:new 0 0 24 24;" xml:space="preserve">
<style type="text/css">
	.st0{fill:none;}
	.st1{fill:#1C2869;}
</style>
<rect class="st0" width="24" height="24"/>
<path class="st1" d="M10.5,13h-1C8.7,13,8,12.3,8,11.5l0,0C8,10.7,8.7,10,9.5,10h1V9c0-0.8,0.7-1.5,1.5-1.5l0,0
	c0.8,0,1.5,0.7,1.5,1.5v1h1c0.8,0,1.5,0.7,1.5,1.5l0,0c0,0.8-0.7,1.5-1.5,1.5h-1v1c0,0.8-0.7,1.5-1.5,1.5l0,0
	c-0.8,0-1.5-0.7-1.5-1.5V13z M11.3,2.3l-6,2.3C4.5,4.8,4,5.6,4,6.4v4.7c0,5,3.4,9.8,8,10.9c4.6-1.1,8-5.9,8-10.9V6.4
	c0-0.8-0.5-1.6-1.3-1.9l-6-2.2C12.2,2.1,11.8,2.1,11.3,2.3z"/>
</svg>
