<?xml version="1.0" encoding="utf-8"?>
<!-- Generator: Adobe Illustrator 25.4.1, SVG Export Plug-In . SVG Version: 6.00 Build 0)  -->
<svg version="1.1" id="Capa_1" xmlns="http://www.w3.org/2000/svg" xmlns:xlink="http://www.w3.org/1999/xlink" x="0px" y="0px"
	 viewBox="0 0 24 24" style="enable-background:new 0 0 24 24;" xml:space="preserve">
<style type="text/css">
	.st0{fill:none;}
	.st1{fill:#1C2869;}
</style>
<g>
	<rect class="st0" width="24" height="24"/>
	<rect class="st0" width="24" height="24"/>
</g>
<g>
	<g>
		<path class="st1" d="M20,6h-4V4c0-1.1-0.9-2-2-2h-4C8.9,2,8,2.9,8,4v2H4C2.9,6,2,6.9,2,8v12c0,1.1,0.9,2,2,2h16c1.1,0,2-0.9,2-2V8
			C22,6.9,21.1,6,20,6z M10,4h4v2h-4V4z M15,15h-2v2c0,0.5-0.4,1-1,1s-1-0.5-1-1v-2H9c-0.6,0-1-0.4-1-1s0.4-1,1-1h2v-2
			c0-0.6,0.4-1,1-1s1,0.4,1,1v2h2c0.6,0,1,0.4,1,1S15.6,15,15,15z"/>
	</g>
</g>
</svg>
