<?xml version="1.0" encoding="utf-8"?>
<!-- Generator: Adobe Illustrator 25.4.1, SVG Export Plug-In . SVG Version: 6.00 Build 0)  -->
<svg version="1.1" id="Capa_1" xmlns="http://www.w3.org/2000/svg" xmlns:xlink="http://www.w3.org/1999/xlink" x="0px" y="0px"
	 viewBox="0 0 24 24" style="enable-background:new 0 0 24 24;" xml:space="preserve">
<style type="text/css">
	.st0{fill:none;}
	.st1{fill:#1C2869;}
</style>
<path class="st0" d="M0,0h24v24H0V0z"/>
<path class="st1" d="M12,8c-2.2,0-4,1.8-4,4s1.8,4,4,4s4-1.8,4-4S14.2,8,12,8z M20.9,11c-0.5-4.2-3.8-7.5-7.9-7.9V2c0-0.5-0.4-1-1-1
	s-1,0.5-1,1v1.1C6.8,3.5,3.5,6.8,3.1,11H2c-0.5,0-1,0.4-1,1s0.5,1,1,1h1.1c0.5,4.2,3.8,7.5,7.9,7.9V22c0,0.5,0.4,1,1,1s1-0.5,1-1
	v-1.1c4.2-0.5,7.5-3.8,7.9-7.9H22c0.5,0,1-0.4,1-1s-0.5-1-1-1C22,11,20.9,11,20.9,11z M12,19c-3.9,0-7-3.1-7-7s3.1-7,7-7s7,3.1,7,7
	S15.9,19,12,19z"/>
</svg>
