<?xml version="1.0" encoding="utf-8"?>
<!-- Generator: Adobe Illustrator 25.4.1, SVG Export Plug-In . SVG Version: 6.00 Build 0)  -->
<svg version="1.1" id="Capa_1" xmlns="http://www.w3.org/2000/svg" xmlns:xlink="http://www.w3.org/1999/xlink" x="0px" y="0px"
	 viewBox="0 0 24 24" style="enable-background:new 0 0 24 24;" xml:space="preserve">
<style type="text/css">
	.st0{fill:none;}
	.st1{fill:#FFC700;}
</style>
<g>
	<rect x="-0.5" class="st0" width="24" height="24"/>
	<path class="st1" d="M17.5,3h-3.2c-0.4-1.2-1.5-2-2.8-2S9.1,1.8,8.7,3H5.5c-1.1,0-2,0.9-2,2v15c0,1.1,0.9,2,2,2h6.1
		c-0.6-0.6-1.1-1.2-1.4-2H5.5V5h2v1c0,1.1,0.9,2,2,2h4c1.1,0,2-0.9,2-2V5h2v5.1c0.7,0.1,1.4,0.3,2,0.6V5C19.5,3.9,18.6,3,17.5,3z
		 M11.5,5c-0.6,0-1-0.4-1-1s0.4-1,1-1s1,0.5,1,1S12.1,5,11.5,5z M16.5,12c-2.8,0-5,2.2-5,5s2.2,5,5,5s5-2.2,5-5S19.3,12,16.5,12z
		 M17.8,19l-1.6-1.6C16.1,17.3,16,17.1,16,17v-2.5c0-0.3,0.2-0.5,0.5-0.5l0,0c0.3,0,0.5,0.2,0.5,0.5v2.3l1.5,1.5
		c0.2,0.2,0.2,0.5,0,0.7l0,0C18.3,19.2,18,19.2,17.8,19z"/>
</g>
</svg>
