<?xml version="1.0" encoding="utf-8"?>
<!-- Generator: Adobe Illustrator 25.4.1, SVG Export Plug-In . SVG Version: 6.00 Build 0)  -->
<svg version="1.1" id="Capa_1" xmlns="http://www.w3.org/2000/svg" xmlns:xlink="http://www.w3.org/1999/xlink" x="0px" y="0px"
	 viewBox="0 0 24 24" style="enable-background:new 0 0 24 24;" xml:space="preserve">
<style type="text/css">
	.st0{fill:none;}
	.st1{fill:#FFC700;}
</style>
<g>
	<rect x="-0.5" y="-0.8" class="st0" width="24" height="24"/>
	<path class="st1" d="M17.5,2.2h-3.2c-0.4-1.2-1.5-2-2.8-2S9.1,1,8.7,2.2H5.5c-1.1,0-2,0.9-2,2v15c0,1.1,0.9,2,2,2h6.1
		c-0.6-0.6-1.1-1.2-1.4-2H5.5v-15h2v1c0,1.1,0.9,2,2,2h4c1.1,0,2-0.9,2-2v-1h2v5.1c0.7,0.1,1.4,0.3,2,0.6V4.2
		C19.5,3.1,18.6,2.2,17.5,2.2z M11.5,4.2c-0.6,0-1-0.4-1-1s0.4-1,1-1s1,0.5,1,1S12.1,4.2,11.5,4.2z M16.5,11.2c-2.8,0-5,2.2-5,5
		s2.2,5,5,5s5-2.2,5-5S19.3,11.2,16.5,11.2z M17.8,18.2l-1.6-1.6c-0.1-0.1-0.2-0.3-0.2-0.4v-2.5c0-0.3,0.2-0.5,0.5-0.5l0,0
		c0.3,0,0.5,0.2,0.5,0.5V16l1.5,1.5c0.2,0.2,0.2,0.5,0,0.7l0,0C18.3,18.4,18,18.4,17.8,18.2z"/>
</g>
</svg>
