<?xml version="1.0" encoding="utf-8"?>
<!-- Generator: Adobe Illustrator 25.4.1, SVG Export Plug-In . SVG Version: 6.00 Build 0)  -->
<svg version="1.1" id="Capa_1" xmlns="http://www.w3.org/2000/svg" xmlns:xlink="http://www.w3.org/1999/xlink" x="0px" y="0px"
	 viewBox="0 0 24 24" style="enable-background:new 0 0 24 24;" xml:space="preserve">
<style type="text/css">
	.st0{fill:none;}
	.st1{fill:#1C2869;}
</style>
<g>
	<path class="st0" d="M0,0h24v24H0V0z"/>
</g>
<g>
	<path class="st1" d="M19.7,7.4l-4.8-4.8C14.5,2.2,14,2,13.5,2H6.3c-1.1,0-2,0.9-2,2l0,16c0,1.1,0.9,2,2,2h12c1.1,0,2-0.9,2-2V8.8
		C20.3,8.3,20.1,7.8,19.7,7.4z M10.5,17.3l-2.1-2.1c-0.4-0.4-0.4-1,0-1.4l0,0c0.4-0.4,1-0.4,1.4,0l1.4,1.4l3.5-3.5
		c0.4-0.4,1-0.4,1.4,0l0,0c0.4,0.4,0.4,1,0,1.4l-4.2,4.2C11.6,17.7,10.9,17.7,10.5,17.3z M14.3,9c-0.6,0-1-0.4-1-1V3.5L18.8,9H14.3z
		"/>
</g>
</svg>
