<svg id="Capa_1" data-name="Capa 1" xmlns="http://www.w3.org/2000/svg" xmlns:xlink="http://www.w3.org/1999/xlink" viewBox="0 0 1190.55 841.89"><defs><linearGradient id="GradientFill_1" x1="212.33" y1="372.48" x2="237.72" y2="330.17" gradientUnits="userSpaceOnUse"><stop offset="0" stop-color="#005ea1"/><stop offset="1" stop-color="#00b5e1"/></linearGradient><linearGradient id="GradientFill_2" x1="169.32" y1="417.14" x2="106.63" y2="366.55" gradientUnits="userSpaceOnUse"><stop offset="0" stop-color="#0073ad"/><stop offset="1" stop-color="#14bae3"/></linearGradient></defs><path d="M271.31,346.51c1.78-14.7-4.46-37-34.3-23.16s-79.27,55.22-81.5,65,40.67,39.37,53.73,29.08S263.74,383.47,271.31,346.51Z" style="fill-rule:evenodd;fill:url(#GradientFill_1)"/><path d="M244.52,390l-3.23,3.37A203,203,0,0,1,126,453.8c-.36.05-.73.13-1.1.17-20.8,2.37-32.5-7-37.16-24.13-4.93-18.13.25-61.75,7.26-79.73,6.25-16,22.68-51.59,45.49-31.1,11.92,10.71,13.58,38.9,20.83,54.92a36.26,36.26,0,0,0,34.49,21.25C211.16,394.57,230.31,393.16,244.52,390Z" style="fill-rule:evenodd;fill:url(#GradientFill_2)"/><text transform="translate(269.07 451.54)" style="font-size:147px;fill:#1c2869;font-family:AvenirNext-Bold, Avenir Next;font-weight:700"><tspan style="letter-spacing:-0.015100180697278911em">n</tspan><tspan x="88.33" y="0" style="letter-spacing:-0.006799399447278911em">e</tspan><tspan x="174.94" y="0" style="letter-spacing:-0.0029994419642857145em">t</tspan><tspan x="229.19" y="0" style="fill:#009ee3;letter-spacing:-0.01400403911564626em">C</tspan><tspan x="329.44" y="0" style="fill:#009ee3;letter-spacing:-0.017897002551020412em">L</tspan><tspan x="404.13" y="0" style="fill:#009ee3;letter-spacing:-0.01189811862244898em">IN</tspan><tspan x="563.5" y="0" style="fill:#009ee3;letter-spacing:-0.013798097363945579em">I</tspan><tspan x="608.22" y="0" style="fill:#009ee3;letter-spacing:0.017903645833333332em">C</tspan><tspan x="713.16" y="0" style="fill:#009ee3">S</tspan></text></svg>